<svg width="24" height="24" viewBox="0 0 24 24" fill="none" xmlns="http://www.w3.org/2000/svg">
<path d="M12.1291 6.61538C13.0049 6.61538 14.1028 6.00509 14.7566 5.19135C15.3487 4.45391 15.7804 3.42403 15.7804 2.39415C15.7804 2.25429 15.7681 2.11443 15.7434 2C14.7689 2.03814 13.597 2.67387 12.8939 3.52575C12.3388 4.17419 11.8331 5.19135 11.8331 6.23395C11.8331 6.38652 11.8577 6.5391 11.8701 6.58996C11.9317 6.60267 12.0304 6.61538 12.1291 6.61538ZM9.04523 22C10.2418 22 10.7722 21.1736 12.2648 21.1736C13.7821 21.1736 14.1151 21.9746 15.4474 21.9746C16.7549 21.9746 17.6308 20.7285 18.4572 19.5079C19.3824 18.1093 19.7648 16.7362 19.7895 16.6726C19.7031 16.6472 17.199 15.5919 17.199 12.6294C17.199 10.061 19.1727 8.90401 19.2837 8.815C17.9762 6.88239 15.9901 6.83153 15.4474 6.83153C13.9794 6.83153 12.7829 7.74698 12.0304 7.74698C11.2163 7.74698 10.1431 6.88239 8.87253 6.88239C6.45477 6.88239 4 8.94215 4 12.8328C4 15.2486 4.91283 17.8042 6.03536 19.4571C6.99753 20.8557 7.83635 22 9.04523 22Z" fill="black"/>
</svg>
